<svg viewBox="0 0 154.11 24" xmlns="http://www.w3.org/2000/svg">
  <g fill="currentColor" stroke-width=".36364">
    <path d="m30.655 23.527v-23.091h5.8545v23.091z"/>
    <path d="m61.418 23.855-11.818-10.436-1.8545-1.5273v11.636h-5.7455v-23.382h0.25454l11.745 10.4c0.65455 0.50909 1.2364 1.0909 1.8909 1.5636v-11.673h5.7818v23.418h-0.21818z"/>
    <path d="m77.418 0c7.1273 0 12.218 5.3455 12.218 12 0 6.6545-5.0545 12-12.218 12s-12.218-5.3091-12.218-12c0-6.6909 5.0909-12 12.218-12zm0 18.655c3.7455 0 6.2909-3.0545 6.2909-6.6545 0-3.6-2.5455-6.6545-6.2909-6.6545-3.7455 0-6.3273 3.0909-6.3273 6.6545 0 3.5636 2.5818 6.6545 6.3273 6.6545z"/>
    <path d="m103.2 5.3818v18.145h-5.8909v-18.145h-6.1455v-4.9455h18.218v4.9455h-6.1455z"/>
    <path d="m113.2 23.527v-23.091h15.127v4.9455h-9.2727v4.1091h7.9273v4.6909h-7.9273v4.4364h9.7455v4.9455h-15.636z"/>
    <path d="m139.16 10.618 7.9636-10.182h6.8727l-8.0364 9.8545 8.1455 13.236h-6.5091l-5.6-9.5273-2.8364 3.3455v6.1818h-5.8545v-23.091h5.8545z"/>
  </g>
  <g fill="currentColor" stroke-width=".36364">
    <path d="m23.491 0.47273-11.309 2.8364 8.2182 8.4"/>
    <path d="m8.2182 14.836-8.2182-8.4 11.309-2.8364z"/>
    <path d="m20.145 12.618-11.309 2.8364 8.1818 8.4"/>
  </g>
</svg>
